<?xml version="1.0" encoding="UTF-8" standalone="no"?>
<svg
   width="313"
   height="81"
   viewBox="0 0 313 81"
   fill="none"
   version="1.1"
   id="svg4"
   sodipodi:docname="mastodon.de-wordmark-white-text.svg"
   inkscape:version="1.3 (0e150ed6c4, 2023-07-21)"
   inkscape:export-filename="wordmark-white-text.png"
   inkscape:export-xdpi="592.59259"
   inkscape:export-ydpi="592.59259"
   xmlns:inkscape="http://www.inkscape.org/namespaces/inkscape"
   xmlns:sodipodi="http://sodipodi.sourceforge.net/DTD/sodipodi-0.dtd"
   xmlns="http://www.w3.org/2000/svg"
   xmlns:svg="http://www.w3.org/2000/svg">
  <sodipodi:namedview
     id="namedview4"
     pagecolor="#505050"
     bordercolor="#eeeeee"
     borderopacity="1"
     inkscape:showpageshadow="0"
     inkscape:pageopacity="0"
     inkscape:pagecheckerboard="0"
     inkscape:deskcolor="#d1d1d1"
     showgrid="false"
     inkscape:zoom="3.4417801"
     inkscape:cx="152.39207"
     inkscape:cy="173.89257"
     inkscape:window-width="1918"
     inkscape:window-height="2054"
     inkscape:window-x="-10"
     inkscape:window-y="60"
     inkscape:window-maximized="0"
     inkscape:current-layer="svg4" />
  <path
     d="M 72.9455,18.4505 C 71.8169,9.95203 64.5038,3.24329 55.846,1.95268 54.3811,1.73352 48.8453,0.929932 36.0206,0.929932 H 35.9245 C 23.0879,0.929932 20.338,1.73352 18.873,1.95268 10.4433,3.21894 2.75813,9.23367 0.884866,17.8418 c -0.88860151,4.2371 -0.9846665,8.9369 -0.8165528,13.247 0.2401618,6.1852 0.2881948,12.346 0.8405678,18.5069 0.384259,4.091 1.044709,8.1455 1.993349,12.139 1.7772,7.3784 8.95807,13.515 15.99487,16.0109 7.529,2.6056 15.6346,3.0438 23.3917,1.254 0.8526,-0.2069 1.6932,-0.4382 2.5338,-0.7061 1.8853,-0.6088 4.0947,-1.2906 5.7278,-2.4838 0.0241,-0.0122 0.0361,-0.0365 0.0481,-0.0609 0.012,-0.0243 0.024,-0.0487 0.024,-0.0853 v -5.966 c 0,0 0,-0.0487 -0.024,-0.073 0,-0.0243 -0.024,-0.0487 -0.0481,-0.0609 -0.024,-0.0121 -0.048,-0.0244 -0.0719,-0.0365 -0.0242,0 -0.0481,0 -0.0721,0 -4.9715,1.2054 -10.0748,1.8142 -15.1783,1.802 -8.802,0 -11.1676,-4.2372 -11.84,-5.9904 -0.5404,-1.5219 -0.8886,-3.117 -1.0327,-4.7241 0,-0.0244 0,-0.0487 0.012,-0.0731 0,-0.0243 0.024,-0.0487 0.0481,-0.0609 0.0239,-0.0121 0.0479,-0.0243 0.0719,-0.0365 h 0.0841 c 4.8873,1.1932 9.9067,1.802 14.9381,1.802 1.2129,0 2.4136,0 3.6265,-0.0365 5.0554,-0.1462 10.3871,-0.4019 15.3704,-1.388 0.12,-0.0244 0.2522,-0.0487 0.3602,-0.0731 7.8534,-1.5341 15.3224,-6.3313 16.0788,-18.4825 0.0242,-0.4748 0.0962,-5.0163 0.0962,-5.5033 0,-1.6925 0.5403,-11.9686 -0.0841,-18.2877 z"
     fill="url(#paint0_linear_539_135)"
     id="path1"
     style="display:inline" />
  <path
     d="m 14.8143,23.1993 c 0,-2.4838 1.9574,-4.4805 4.383,-4.4805 2.4257,0 4.3829,2.0089 4.3829,4.4805 0,2.4716 -1.9572,4.4806 -4.3829,4.4806 -2.4256,0 -4.383,-2.009 -4.383,-4.4806 z"
     fill="#ffffff"
     id="path2"
     style="display:inline" />
  <path
     d="M 80.0185,27.059 V 47.66 H 72.0331 V 27.6677 c 0,-4.2127 -1.7291,-6.3435 -5.1995,-6.3435 -3.8306,0 -5.7639,2.5448 -5.7639,7.5488 V 39.8189 H 53.1444 V 28.873 c 0,-5.0285 -1.9093,-7.5488 -5.764,-7.5488 -3.4582,0 -5.1995,2.1308 -5.1995,6.3435 V 47.6479 H 34.2075 V 27.059 c 0,-4.2007 1.0447,-7.549 3.1461,-10.0327 2.1735,-2.4839 5.0194,-3.738 8.5378,-3.738 4.0828,0 7.1809,1.6072 9.2223,4.8215 l 1.9934,3.4093 1.9933,-3.4093 c 2.0413,-3.2021 5.1275,-4.8215 9.2222,-4.8215 3.5184,0 6.3643,1.2664 8.5378,3.738 2.1014,2.4837 3.1461,5.8077 3.1461,10.0327 z m 27.4745,10.2395 c 1.657,-1.7898 2.438,-4.0057 2.438,-6.7087 0,-2.703 -0.793,-4.9432 -2.438,-6.6478 -1.585,-1.7898 -3.602,-2.6422 -6.04,-2.6422 -2.4377,0 -4.443,0.8524 -6.04,2.6422 -1.5851,1.7046 -2.3776,3.9448 -2.3776,6.6478 0,2.703 0.7925,4.9433 2.3776,6.7087 1.585,1.7046 3.6023,2.5692 6.04,2.5692 2.438,0 4.443,-0.8524 6.04,-2.5692 z m 2.438,-23.1822 h 7.865 v 32.9471 h -7.865 v -3.884 c -2.378,3.2265 -5.668,4.8215 -9.9429,4.8215 -4.2749,0 -7.5652,-1.6437 -10.4832,-5.0042 -2.8699,-3.3604 -4.3228,-7.5123 -4.3228,-12.3825 0,-4.8703 1.4649,-8.9613 4.3228,-12.3217 2.93,-3.3604 6.4124,-5.065 10.4832,-5.065 4.0709,0 7.5649,1.5828 9.9429,4.7972 v -3.884 z m 34.331,15.8526 c 2.318,1.7897 3.471,4.2858 3.411,7.4393 0,3.3604 -1.153,6.0025 -3.531,7.8288 -2.377,1.7899 -5.248,2.703 -8.73,2.703 -6.28,0 -10.543,-2.642 -12.801,-7.8289 l 6.822,-4.1518 c 0.911,2.8247 2.917,4.2858 5.979,4.2858 2.81,0 4.203,-0.9132 4.203,-2.8248 0,-1.388 -1.826,-2.6421 -5.548,-3.6161 -1.405,-0.3897 -2.569,-0.7915 -3.47,-1.1202 -1.286,-0.5235 -2.378,-1.1201 -3.291,-1.8506 -2.257,-1.7898 -3.409,-4.152 -3.409,-7.1837 0,-3.2264 1.092,-5.7955 3.289,-7.6462 2.259,-1.9115 5.007,-2.8248 8.298,-2.8248 5.247,0 9.078,2.3012 11.588,6.9767 l -6.701,3.9448 c -0.972,-2.2403 -2.63,-3.3604 -4.887,-3.3604 -2.378,0 -3.531,0.9131 -3.531,2.7029 0,1.3881 1.826,2.6422 5.548,3.6163 2.87,0.6574 5.127,1.6436 6.761,2.9099 h 0.012 z m 25.001,-7.695 h -6.893 v 13.7097 c 0,1.6437 0.613,2.6421 1.777,3.0927 0.853,0.3287 2.558,0.3895 5.128,0.2678 v 7.7071 c -5.296,0.6575 -9.138,0.1217 -11.395,-1.6437 -2.258,-1.7046 -3.351,-4.8824 -3.351,-9.4117 V 22.2739 h -5.296 v -8.1698 h 5.296 V 7.45625 l 7.865,-2.56905 v 9.2291 h 6.893 v 8.1698 h -0.012 z m 25.073,14.8299 c 1.585,-1.7046 2.377,-3.8841 2.377,-6.5261 0,-2.6422 -0.792,-4.7972 -2.377,-6.5262 -1.598,-1.7045 -3.543,-2.569 -5.92,-2.569 -2.378,0 -4.323,0.8523 -5.921,2.569 -1.524,1.7898 -2.317,3.945 -2.317,6.5262 0,2.5811 0.793,4.7363 2.317,6.5261 1.586,1.7045 3.543,2.569 5.921,2.569 2.377,0 4.322,-0.8522 5.92,-2.569 z m -17.375,5.8564 c -3.111,-3.3604 -4.636,-7.4392 -4.636,-12.3825 0,-4.9434 1.525,-8.9612 4.636,-12.3217 3.109,-3.3605 6.952,-5.0651 11.455,-5.0651 4.502,0 8.358,1.7046 11.456,5.0651 3.098,3.3605 4.695,7.5123 4.695,12.3217 0,4.8093 -1.597,9.0221 -4.695,12.3825 -3.111,3.3605 -6.893,5.0041 -11.456,5.0041 -4.563,0 -8.358,-1.6436 -11.455,-5.0041 z m 53.903,-5.6738 c 1.585,-1.7898 2.378,-4.0057 2.378,-6.7087 0,-2.703 -0.793,-4.9434 -2.378,-6.6479 -1.584,-1.7899 -3.601,-2.6421 -6.04,-2.6421 -2.437,0 -4.455,0.8522 -6.099,2.6421 -1.586,1.7045 -2.378,3.9449 -2.378,6.6479 0,2.703 0.792,4.9433 2.378,6.7087 1.656,1.7046 3.722,2.569 6.099,2.569 2.379,0 4.444,-0.8523 6.04,-2.569 z m 2.378,-36.368431 h 7.865 V 47.0512 h -7.865 v -3.884 c -2.317,3.2265 -5.608,4.8215 -9.882,4.8215 -4.275,0 -7.613,-1.6436 -10.556,-5.0042 -2.87,-3.3604 -4.322,-7.5122 -4.322,-12.3825 0,-4.8702 1.464,-8.9612 4.322,-12.3216 2.918,-3.3606 6.46,-5.0651 10.556,-5.0651 4.094,0 7.565,1.5828 9.882,4.7972 V 0.930144 Z M 268.738,37.0672 c 1.585,-1.7046 2.378,-3.8839 2.378,-6.5261 0,-2.642 -0.793,-4.7972 -2.378,-6.5261 -1.585,-1.7045 -3.53,-2.569 -5.92,-2.569 -2.389,0 -4.322,0.8523 -5.92,2.569 -1.525,1.7899 -2.318,3.9449 -2.318,6.5261 0,2.5813 0.793,4.7363 2.318,6.5261 1.586,1.7047 3.543,2.5691 5.92,2.5691 2.378,0 4.323,-0.8523 5.92,-2.5691 z m -17.376,5.8565 c -3.097,-3.3605 -4.635,-7.4393 -4.635,-12.3826 0,-4.9432 1.526,-8.9612 4.635,-12.3216 3.11,-3.3605 6.953,-5.0651 11.456,-5.0651 4.503,0 8.358,1.7046 11.456,5.0651 3.109,3.3604 4.695,7.5123 4.695,12.3216 0,4.8094 -1.586,9.0221 -4.695,12.3826 -3.11,3.3604 -6.893,5.0042 -11.456,5.0042 -4.563,0 -8.358,-1.6438 -11.456,-5.0042 z M 313,26.7789 v 20.2357 h -7.865 V 27.8382 c 0,-2.1795 -0.541,-3.8232 -1.657,-5.065 -1.033,-1.1203 -2.498,-1.7047 -4.384,-1.7047 -4.442,0 -6.7,2.703 -6.7,8.1698 v 17.7886 h -7.865 V 14.1041 h 7.865 v 3.7014 c 1.885,-3.0927 4.887,-4.6146 9.078,-4.6146 3.35,0 6.1,1.1811 8.238,3.6162 2.198,2.4351 3.29,5.7347 3.29,10.0083"
     fill="#ffffff"
     id="path3"
     style="display:inline" />
  <defs
     id="defs4">
    <linearGradient
       id="paint0_linear_539_135"
       x1="36.621"
       y1="0.929932"
       x2="36.621"
       y2="80.0712"
       gradientUnits="userSpaceOnUse">
      <stop
         stop-color="#6364FF"
         id="stop3" />
      <stop
         offset="1"
         stop-color="#563ACC"
         id="stop4" />
    </linearGradient>
  </defs>
  <text
     xml:space="preserve"
     style="font-size:37.3333px;line-height:1.25;font-family:'Jeko DEMO';-inkscape-font-specification:'Jeko DEMO';fill:#f9f9f9"
     x="258.26941"
     y="80.514664"
     id="text5"><tspan
       sodipodi:role="line"
       id="tspan5"
       x="258.26941"
       y="80.514664"
       style="font-style:normal;font-variant:normal;font-weight:800;font-stretch:normal;font-size:37.3333px;font-family:Sans;-inkscape-font-specification:'Sans, Ultra-Bold';font-variant-ligatures:normal;font-variant-caps:normal;font-variant-numeric:normal;font-variant-east-asian:normal">.de</tspan></text>
</svg>
